<mxfile host="app.diagrams.net" modified="2024-01-26T21:48:56.589Z" agent="Mozilla/5.0 (Windows NT 10.0; Win64; x64) AppleWebKit/537.36 (KHTML, like Gecko) Chrome/121.0.0.0 Safari/537.36 Edg/121.0.0.0" version="23.0.2" etag="ipORhY06QdqfJ0FD8-fd" type="github">
  <diagram name="Page-1" id="gJfcir9qA9NP5r1dRaRC">
    <mxGraphModel>
      <root>
        <mxCell id="0" />
        <mxCell id="1" parent="0" />
      </root>
    </mxGraphModel>
  </diagram>
</mxfile>
